<mxfile host="2b21f836-4946-41ad-a752-01229cbae0d8" modified="2020-09-05T15:31:42.947Z" agent="5.0 (Windows NT 10.0; Win64; x64) AppleWebKit/537.36 (KHTML, like Gecko) Code/1.48.2 Chrome/78.0.3904.130 Electron/7.3.2 Safari/537.36" etag="281I4yZn7B28FHhltRfe" version="13.1.3">
    <diagram id="6hGFLwfOUW9BJ-s0fimq" name="Page-1">
        <mxGraphModel dx="558" dy="292" grid="1" gridSize="10" guides="1" tooltips="1" connect="1" arrows="1" fold="1" page="1" pageScale="1" pageWidth="827" pageHeight="1169" math="0" shadow="0">
            <root>
                <mxCell id="0"/>
                <mxCell id="1" parent="0"/>
                <mxCell id="2" value="" style="endArrow=none;html=1;" edge="1" parent="1">
                    <mxGeometry width="50" height="50" relative="1" as="geometry">
                        <mxPoint x="400" y="640" as="sourcePoint"/>
                        <mxPoint x="400" y="240" as="targetPoint"/>
                    </mxGeometry>
                </mxCell>
                <mxCell id="3" value="" style="endArrow=none;html=1;" edge="1" parent="1">
                    <mxGeometry width="50" height="50" relative="1" as="geometry">
                        <mxPoint x="200" y="440" as="sourcePoint"/>
                        <mxPoint x="600" y="440" as="targetPoint"/>
                    </mxGeometry>
                </mxCell>
                <mxCell id="4" value="" style="ellipse;whiteSpace=wrap;html=1;aspect=fixed;fillColor=none;" vertex="1" parent="1">
                    <mxGeometry x="320" y="360" width="160" height="160" as="geometry"/>
                </mxCell>
                <mxCell id="6" value="" style="verticalLabelPosition=bottom;verticalAlign=top;html=1;shape=mxgraph.basic.acute_triangle;dx=0.5;fillColor=none;strokeColor=#d6b656;" vertex="1" parent="1">
                    <mxGeometry x="260" y="280" width="280" height="240" as="geometry"/>
                </mxCell>
                <mxCell id="7" value="" style="verticalLabelPosition=bottom;verticalAlign=top;html=1;shape=mxgraph.basic.orthogonal_triangle;fillColor=none;strokeColor=#6c8ebf;" vertex="1" parent="1">
                    <mxGeometry x="320" y="360" width="160" height="160" as="geometry"/>
                </mxCell>
                <mxCell id="8" value="" style="verticalLabelPosition=bottom;verticalAlign=top;html=1;shape=mxgraph.basic.orthogonal_triangle;fillColor=none;rotation=-180;strokeColor=#6c8ebf;" vertex="1" parent="1">
                    <mxGeometry x="320" y="360" width="160" height="160" as="geometry"/>
                </mxCell>
                <mxCell id="10" value="Fragments" parent="0"/>
                <mxCell id="11" value="" style="endArrow=none;html=1;" edge="1" parent="10">
                    <mxGeometry width="50" height="50" relative="1" as="geometry">
                        <mxPoint x="400" y="640" as="sourcePoint"/>
                        <mxPoint x="400" y="240" as="targetPoint"/>
                    </mxGeometry>
                </mxCell>
                <mxCell id="12" value="" style="endArrow=none;html=1;" edge="1" parent="10">
                    <mxGeometry width="50" height="50" relative="1" as="geometry">
                        <mxPoint x="200" y="440" as="sourcePoint"/>
                        <mxPoint x="600" y="440" as="targetPoint"/>
                    </mxGeometry>
                </mxCell>
                <mxCell id="13" value="" style="ellipse;whiteSpace=wrap;html=1;aspect=fixed;fillColor=none;" vertex="1" parent="10">
                    <mxGeometry x="320" y="360" width="160" height="160" as="geometry"/>
                </mxCell>
                <mxCell id="14" value="" style="verticalLabelPosition=bottom;verticalAlign=top;html=1;shape=mxgraph.basic.acute_triangle;dx=0.5;fillColor=none;strokeColor=#d6b656;strokeWidth=2;perimeterSpacing=0;" vertex="1" parent="10">
                    <mxGeometry x="260" y="280" width="280" height="240" as="geometry"/>
                </mxCell>
                <mxCell id="15" value="" style="verticalLabelPosition=bottom;verticalAlign=top;html=1;shape=mxgraph.basic.orthogonal_triangle;fillColor=none;strokeColor=#6c8ebf;strokeWidth=2;" vertex="1" parent="10">
                    <mxGeometry x="320" y="360" width="160" height="160" as="geometry"/>
                </mxCell>
                <mxCell id="16" value="" style="verticalLabelPosition=bottom;verticalAlign=top;html=1;shape=mxgraph.basic.orthogonal_triangle;fillColor=none;rotation=-180;strokeColor=#6c8ebf;strokeWidth=2;" vertex="1" parent="10">
                    <mxGeometry x="320" y="360" width="160" height="160" as="geometry"/>
                </mxCell>
                <mxCell id="17" value="" style="rounded=0;whiteSpace=wrap;html=1;fillColor=#d5e8d4;strokeColor=#82b366;fillOpacity=50;" vertex="1" parent="10">
                    <mxGeometry x="320" y="360" width="10" height="10" as="geometry"/>
                </mxCell>
                <mxCell id="18" value="" style="rounded=0;whiteSpace=wrap;html=1;fillColor=#d5e8d4;strokeColor=#82b366;fillOpacity=50;" vertex="1" parent="10">
                    <mxGeometry x="330" y="360" width="10" height="10" as="geometry"/>
                </mxCell>
                <mxCell id="19" value="" style="rounded=0;whiteSpace=wrap;html=1;fillColor=#d5e8d4;strokeColor=#82b366;fillOpacity=50;" vertex="1" parent="10">
                    <mxGeometry x="320" y="370" width="10" height="10" as="geometry"/>
                </mxCell>
                <mxCell id="20" value="" style="rounded=0;whiteSpace=wrap;html=1;fillColor=#d5e8d4;strokeColor=#82b366;fillOpacity=50;" vertex="1" parent="10">
                    <mxGeometry x="330" y="370" width="10" height="10" as="geometry"/>
                </mxCell>
                <mxCell id="33" value="" style="rounded=0;whiteSpace=wrap;html=1;fillColor=#d5e8d4;strokeColor=#82b366;fillOpacity=50;" vertex="1" parent="10">
                    <mxGeometry x="340" y="360" width="10" height="10" as="geometry"/>
                </mxCell>
                <mxCell id="34" value="" style="rounded=0;whiteSpace=wrap;html=1;fillColor=#d5e8d4;strokeColor=#82b366;fillOpacity=50;" vertex="1" parent="10">
                    <mxGeometry x="350" y="360" width="10" height="10" as="geometry"/>
                </mxCell>
                <mxCell id="35" value="" style="rounded=0;whiteSpace=wrap;html=1;fillColor=#d5e8d4;strokeColor=#82b366;fillOpacity=50;" vertex="1" parent="10">
                    <mxGeometry x="340" y="370" width="10" height="10" as="geometry"/>
                </mxCell>
                <mxCell id="36" value="" style="rounded=0;whiteSpace=wrap;html=1;fillColor=#d5e8d4;strokeColor=#82b366;fillOpacity=50;" vertex="1" parent="10">
                    <mxGeometry x="350" y="370" width="10" height="10" as="geometry"/>
                </mxCell>
                <mxCell id="37" value="" style="rounded=0;whiteSpace=wrap;html=1;fillColor=#d5e8d4;strokeColor=#82b366;fillOpacity=50;" vertex="1" parent="10">
                    <mxGeometry x="320" y="380" width="10" height="10" as="geometry"/>
                </mxCell>
                <mxCell id="38" value="" style="rounded=0;whiteSpace=wrap;html=1;fillColor=#d5e8d4;strokeColor=#82b366;fillOpacity=50;" vertex="1" parent="10">
                    <mxGeometry x="330" y="380" width="10" height="10" as="geometry"/>
                </mxCell>
                <mxCell id="39" value="" style="rounded=0;whiteSpace=wrap;html=1;fillColor=#d5e8d4;strokeColor=#82b366;fillOpacity=50;" vertex="1" parent="10">
                    <mxGeometry x="320" y="390" width="10" height="10" as="geometry"/>
                </mxCell>
                <mxCell id="40" value="" style="rounded=0;whiteSpace=wrap;html=1;fillColor=#d5e8d4;strokeColor=#82b366;fillOpacity=50;" vertex="1" parent="10">
                    <mxGeometry x="330" y="390" width="10" height="10" as="geometry"/>
                </mxCell>
                <mxCell id="41" value="" style="rounded=0;whiteSpace=wrap;html=1;fillColor=#d5e8d4;strokeColor=#82b366;fillOpacity=50;" vertex="1" parent="10">
                    <mxGeometry x="340" y="380" width="10" height="10" as="geometry"/>
                </mxCell>
                <mxCell id="42" value="" style="rounded=0;whiteSpace=wrap;html=1;fillColor=#d5e8d4;strokeColor=#82b366;fillOpacity=50;" vertex="1" parent="10">
                    <mxGeometry x="350" y="380" width="10" height="10" as="geometry"/>
                </mxCell>
                <mxCell id="43" value="" style="rounded=0;whiteSpace=wrap;html=1;fillColor=#d5e8d4;strokeColor=#82b366;fillOpacity=50;" vertex="1" parent="10">
                    <mxGeometry x="340" y="390" width="10" height="10" as="geometry"/>
                </mxCell>
                <mxCell id="44" value="" style="rounded=0;whiteSpace=wrap;html=1;fillColor=#d5e8d4;strokeColor=#82b366;fillOpacity=50;" vertex="1" parent="10">
                    <mxGeometry x="350" y="390" width="10" height="10" as="geometry"/>
                </mxCell>
                <mxCell id="45" value="" style="rounded=0;whiteSpace=wrap;html=1;fillColor=#d5e8d4;strokeColor=#82b366;fillOpacity=50;" vertex="1" parent="10">
                    <mxGeometry x="360" y="360" width="10" height="10" as="geometry"/>
                </mxCell>
                <mxCell id="46" value="" style="rounded=0;whiteSpace=wrap;html=1;fillColor=#d5e8d4;strokeColor=#82b366;fillOpacity=50;" vertex="1" parent="10">
                    <mxGeometry x="370" y="360" width="10" height="10" as="geometry"/>
                </mxCell>
                <mxCell id="47" value="" style="rounded=0;whiteSpace=wrap;html=1;fillColor=#d5e8d4;strokeColor=#82b366;fillOpacity=50;" vertex="1" parent="10">
                    <mxGeometry x="360" y="370" width="10" height="10" as="geometry"/>
                </mxCell>
                <mxCell id="48" value="" style="rounded=0;whiteSpace=wrap;html=1;fillColor=#d5e8d4;strokeColor=#82b366;fillOpacity=50;" vertex="1" parent="10">
                    <mxGeometry x="370" y="370" width="10" height="10" as="geometry"/>
                </mxCell>
                <mxCell id="49" value="" style="rounded=0;whiteSpace=wrap;html=1;fillColor=#d5e8d4;strokeColor=#82b366;fillOpacity=50;" vertex="1" parent="10">
                    <mxGeometry x="360" y="380" width="10" height="10" as="geometry"/>
                </mxCell>
                <mxCell id="50" value="" style="rounded=0;whiteSpace=wrap;html=1;fillColor=#d5e8d4;strokeColor=#82b366;fillOpacity=50;" vertex="1" parent="10">
                    <mxGeometry x="370" y="380" width="10" height="10" as="geometry"/>
                </mxCell>
                <mxCell id="51" value="" style="rounded=0;whiteSpace=wrap;html=1;fillColor=#d5e8d4;strokeColor=#82b366;fillOpacity=50;" vertex="1" parent="10">
                    <mxGeometry x="360" y="390" width="10" height="10" as="geometry"/>
                </mxCell>
                <mxCell id="52" value="" style="rounded=0;whiteSpace=wrap;html=1;fillColor=#d5e8d4;strokeColor=#82b366;fillOpacity=50;" vertex="1" parent="10">
                    <mxGeometry x="370" y="390" width="10" height="10" as="geometry"/>
                </mxCell>
                <mxCell id="53" value="" style="rounded=0;whiteSpace=wrap;html=1;fillColor=#008a00;strokeColor=#005700;fillOpacity=50;fontColor=#ffffff;" vertex="1" parent="10">
                    <mxGeometry x="310" y="470" width="10" height="10" as="geometry"/>
                </mxCell>
                <mxCell id="54" value="" style="rounded=0;whiteSpace=wrap;html=1;fillColor=#008a00;strokeColor=#005700;fillOpacity=50;fontColor=#ffffff;" vertex="1" parent="10">
                    <mxGeometry x="310" y="460" width="10" height="10" as="geometry"/>
                </mxCell>
                <mxCell id="55" value="" style="rounded=0;whiteSpace=wrap;html=1;fillColor=#008a00;strokeColor=#005700;fillOpacity=50;fontColor=#ffffff;" vertex="1" parent="10">
                    <mxGeometry x="300" y="470" width="10" height="10" as="geometry"/>
                </mxCell>
                <mxCell id="56" value="" style="rounded=0;whiteSpace=wrap;html=1;fillColor=#008a00;strokeColor=#005700;fillOpacity=50;fontColor=#ffffff;" vertex="1" parent="10">
                    <mxGeometry x="270" y="490" width="10" height="10" as="geometry"/>
                </mxCell>
                <mxCell id="57" value="" style="rounded=0;whiteSpace=wrap;html=1;fillColor=#008a00;strokeColor=#005700;fillOpacity=50;fontColor=#ffffff;" vertex="1" parent="10">
                    <mxGeometry x="280" y="480" width="10" height="10" as="geometry"/>
                </mxCell>
                <mxCell id="58" value="" style="rounded=0;whiteSpace=wrap;html=1;fillColor=#008a00;strokeColor=#005700;fillOpacity=50;fontColor=#ffffff;" vertex="1" parent="10">
                    <mxGeometry x="290" y="480" width="10" height="10" as="geometry"/>
                </mxCell>
                <mxCell id="59" value="" style="rounded=0;whiteSpace=wrap;html=1;fillColor=#008a00;strokeColor=#005700;fillOpacity=50;fontColor=#ffffff;" vertex="1" parent="10">
                    <mxGeometry x="280" y="490" width="10" height="10" as="geometry"/>
                </mxCell>
                <mxCell id="60" value="" style="rounded=0;whiteSpace=wrap;html=1;fillColor=#008a00;strokeColor=#005700;fillOpacity=50;fontColor=#ffffff;" vertex="1" parent="10">
                    <mxGeometry x="290" y="490" width="10" height="10" as="geometry"/>
                </mxCell>
                <mxCell id="61" value="" style="rounded=0;whiteSpace=wrap;html=1;fillColor=#008a00;strokeColor=#005700;fillOpacity=50;fontColor=#ffffff;" vertex="1" parent="10">
                    <mxGeometry x="260" y="500" width="10" height="10" as="geometry"/>
                </mxCell>
                <mxCell id="62" value="" style="rounded=0;whiteSpace=wrap;html=1;fillColor=#008a00;strokeColor=#005700;fillOpacity=50;fontColor=#ffffff;" vertex="1" parent="10">
                    <mxGeometry x="270" y="500" width="10" height="10" as="geometry"/>
                </mxCell>
                <mxCell id="63" value="" style="rounded=0;whiteSpace=wrap;html=1;fillColor=#008a00;strokeColor=#005700;fillOpacity=50;fontColor=#ffffff;" vertex="1" parent="10">
                    <mxGeometry x="260" y="510" width="10" height="10" as="geometry"/>
                </mxCell>
                <mxCell id="64" value="" style="rounded=0;whiteSpace=wrap;html=1;fillColor=#008a00;strokeColor=#005700;fillOpacity=50;fontColor=#ffffff;" vertex="1" parent="10">
                    <mxGeometry x="270" y="510" width="10" height="10" as="geometry"/>
                </mxCell>
                <mxCell id="65" value="" style="rounded=0;whiteSpace=wrap;html=1;fillColor=#008a00;strokeColor=#005700;fillOpacity=50;fontColor=#ffffff;" vertex="1" parent="10">
                    <mxGeometry x="280" y="500" width="10" height="10" as="geometry"/>
                </mxCell>
                <mxCell id="66" value="" style="rounded=0;whiteSpace=wrap;html=1;fillColor=#008a00;strokeColor=#005700;fillOpacity=50;fontColor=#ffffff;" vertex="1" parent="10">
                    <mxGeometry x="290" y="500" width="10" height="10" as="geometry"/>
                </mxCell>
                <mxCell id="67" value="" style="rounded=0;whiteSpace=wrap;html=1;fillColor=#008a00;strokeColor=#005700;fillOpacity=50;fontColor=#ffffff;" vertex="1" parent="10">
                    <mxGeometry x="280" y="510" width="10" height="10" as="geometry"/>
                </mxCell>
                <mxCell id="68" value="" style="rounded=0;whiteSpace=wrap;html=1;fillColor=#008a00;strokeColor=#005700;fillOpacity=50;fontColor=#ffffff;" vertex="1" parent="10">
                    <mxGeometry x="290" y="510" width="10" height="10" as="geometry"/>
                </mxCell>
                <mxCell id="69" value="" style="rounded=0;whiteSpace=wrap;html=1;fillColor=#008a00;strokeColor=#005700;fillOpacity=50;fontColor=#ffffff;" vertex="1" parent="10">
                    <mxGeometry x="300" y="480" width="10" height="10" as="geometry"/>
                </mxCell>
                <mxCell id="70" value="" style="rounded=0;whiteSpace=wrap;html=1;fillColor=#008a00;strokeColor=#005700;fillOpacity=50;fontColor=#ffffff;" vertex="1" parent="10">
                    <mxGeometry x="310" y="480" width="10" height="10" as="geometry"/>
                </mxCell>
                <mxCell id="71" value="" style="rounded=0;whiteSpace=wrap;html=1;fillColor=#008a00;strokeColor=#005700;fillOpacity=50;fontColor=#ffffff;" vertex="1" parent="10">
                    <mxGeometry x="300" y="490" width="10" height="10" as="geometry"/>
                </mxCell>
                <mxCell id="72" value="" style="rounded=0;whiteSpace=wrap;html=1;fillColor=#008a00;strokeColor=#005700;fillOpacity=50;fontColor=#ffffff;" vertex="1" parent="10">
                    <mxGeometry x="310" y="490" width="10" height="10" as="geometry"/>
                </mxCell>
                <mxCell id="73" value="" style="rounded=0;whiteSpace=wrap;html=1;fillColor=#008a00;strokeColor=#005700;fillOpacity=50;fontColor=#ffffff;" vertex="1" parent="10">
                    <mxGeometry x="300" y="500" width="10" height="10" as="geometry"/>
                </mxCell>
                <mxCell id="74" value="" style="rounded=0;whiteSpace=wrap;html=1;fillColor=#008a00;strokeColor=#005700;fillOpacity=50;fontColor=#ffffff;" vertex="1" parent="10">
                    <mxGeometry x="310" y="500" width="10" height="10" as="geometry"/>
                </mxCell>
                <mxCell id="75" value="" style="rounded=0;whiteSpace=wrap;html=1;fillColor=#008a00;strokeColor=#005700;fillOpacity=50;fontColor=#ffffff;" vertex="1" parent="10">
                    <mxGeometry x="300" y="510" width="10" height="10" as="geometry"/>
                </mxCell>
                <mxCell id="76" value="" style="rounded=0;whiteSpace=wrap;html=1;fillColor=#008a00;strokeColor=#005700;fillOpacity=50;fontColor=#ffffff;" vertex="1" parent="10">
                    <mxGeometry x="310" y="510" width="10" height="10" as="geometry"/>
                </mxCell>
                <mxCell id="77" value="" style="rounded=0;whiteSpace=wrap;html=1;fillColor=#008a00;strokeColor=#005700;fillOpacity=50;fontColor=#ffffff;" vertex="1" parent="10">
                    <mxGeometry x="300" y="460" width="10" height="10" as="geometry"/>
                </mxCell>
                <mxCell id="78" value="" style="rounded=0;whiteSpace=wrap;html=1;fillColor=#008a00;strokeColor=#005700;fillOpacity=50;fontColor=#ffffff;" vertex="1" parent="10">
                    <mxGeometry x="310" y="450" width="10" height="10" as="geometry"/>
                </mxCell>
                <mxCell id="79" value="" style="rounded=0;whiteSpace=wrap;html=1;fillColor=#008a00;strokeColor=#005700;fillOpacity=50;fontColor=#ffffff;" vertex="1" parent="10">
                    <mxGeometry x="310" y="440" width="10" height="10" as="geometry"/>
                </mxCell>
                <mxCell id="80" value="" style="rounded=0;whiteSpace=wrap;html=1;fillColor=#008a00;strokeColor=#005700;fillOpacity=50;fontColor=#ffffff;" vertex="1" parent="10">
                    <mxGeometry x="310" y="430" width="10" height="10" as="geometry"/>
                </mxCell>
                <mxCell id="81" value="" style="rounded=0;whiteSpace=wrap;html=1;fillColor=#008a00;strokeColor=#005700;fillOpacity=50;fontColor=#ffffff;" vertex="1" parent="10">
                    <mxGeometry x="300" y="450" width="10" height="10" as="geometry"/>
                </mxCell>
                <mxCell id="82" value="" style="rounded=0;whiteSpace=wrap;html=1;fillColor=#008a00;strokeColor=#005700;fillOpacity=50;fontColor=#ffffff;" vertex="1" parent="10">
                    <mxGeometry x="290" y="470" width="10" height="10" as="geometry"/>
                </mxCell>
                <mxCell id="83" value="" style="rounded=0;whiteSpace=wrap;html=1;fillColor=#008a00;strokeColor=#005700;fillOpacity=50;fontColor=#ffffff;" vertex="1" parent="10">
                    <mxGeometry x="290" y="460" width="10" height="10" as="geometry"/>
                </mxCell>
                <mxCell id="84" value="" style="rounded=0;whiteSpace=wrap;html=1;fillColor=#008a00;strokeColor=#005700;fillOpacity=50;fontColor=#ffffff;" vertex="1" parent="10">
                    <mxGeometry x="300" y="440" width="10" height="10" as="geometry"/>
                </mxCell>
                <mxCell id="85" value="" style="rounded=0;whiteSpace=wrap;html=1;fillColor=#008a00;strokeColor=#005700;fillOpacity=50;fontColor=#ffffff;" vertex="1" parent="10">
                    <mxGeometry x="280" y="470" width="10" height="10" as="geometry"/>
                </mxCell>
                <mxCell id="86" value="" style="rounded=0;whiteSpace=wrap;html=1;fillColor=#008a00;strokeColor=#005700;fillOpacity=50;fontColor=#ffffff;" vertex="1" parent="10">
                    <mxGeometry x="270" y="480" width="10" height="10" as="geometry"/>
                </mxCell>
                <mxCell id="87" value="" style="rounded=0;whiteSpace=wrap;html=1;fillColor=#008a00;strokeColor=#005700;fillOpacity=50;fontColor=#ffffff;" vertex="1" parent="10">
                    <mxGeometry x="290" y="450" width="10" height="10" as="geometry"/>
                </mxCell>
                <mxCell id="88" value="" style="rounded=0;whiteSpace=wrap;html=1;fillColor=#008a00;strokeColor=#005700;fillOpacity=50;fontColor=#ffffff;" vertex="1" parent="10">
                    <mxGeometry x="310" y="420" width="10" height="10" as="geometry"/>
                </mxCell>
                <mxCell id="89" value="" style="rounded=0;whiteSpace=wrap;html=1;fillColor=#008a00;strokeColor=#005700;fillOpacity=50;fontColor=#ffffff;" vertex="1" parent="10">
                    <mxGeometry x="310" y="410" width="10" height="10" as="geometry"/>
                </mxCell>
                <mxCell id="90" value="" style="rounded=0;whiteSpace=wrap;html=1;fillColor=#008a00;strokeColor=#005700;fillOpacity=50;fontColor=#ffffff;" vertex="1" parent="10">
                    <mxGeometry x="300" y="430" width="10" height="10" as="geometry"/>
                </mxCell>
                <mxCell id="91" value="" style="rounded=0;whiteSpace=wrap;html=1;fillColor=#008a00;strokeColor=#005700;fillOpacity=50;fontColor=#ffffff;" vertex="1" parent="10">
                    <mxGeometry x="280" y="460" width="10" height="10" as="geometry"/>
                </mxCell>
                <mxCell id="116" value="" style="rounded=0;whiteSpace=wrap;html=1;fillColor=#d5e8d4;strokeColor=#82b366;fillOpacity=50;" vertex="1" parent="10">
                    <mxGeometry x="380" y="360" width="10" height="10" as="geometry"/>
                </mxCell>
                <mxCell id="117" value="" style="rounded=0;whiteSpace=wrap;html=1;fillColor=#d5e8d4;strokeColor=#82b366;fillOpacity=50;" vertex="1" parent="10">
                    <mxGeometry x="390" y="360" width="10" height="10" as="geometry"/>
                </mxCell>
                <mxCell id="118" value="" style="rounded=0;whiteSpace=wrap;html=1;fillColor=#d5e8d4;strokeColor=#82b366;fillOpacity=50;" vertex="1" parent="10">
                    <mxGeometry x="380" y="370" width="10" height="10" as="geometry"/>
                </mxCell>
                <mxCell id="119" value="" style="rounded=0;whiteSpace=wrap;html=1;fillColor=#d5e8d4;strokeColor=#82b366;fillOpacity=50;" vertex="1" parent="10">
                    <mxGeometry x="390" y="370" width="10" height="10" as="geometry"/>
                </mxCell>
                <mxCell id="124" value="" style="rounded=0;whiteSpace=wrap;html=1;fillColor=#d5e8d4;strokeColor=#82b366;fillOpacity=50;" vertex="1" parent="10">
                    <mxGeometry x="380" y="380" width="10" height="10" as="geometry"/>
                </mxCell>
                <mxCell id="125" value="" style="rounded=0;whiteSpace=wrap;html=1;fillColor=#d5e8d4;strokeColor=#82b366;fillOpacity=50;" vertex="1" parent="10">
                    <mxGeometry x="390" y="380" width="10" height="10" as="geometry"/>
                </mxCell>
                <mxCell id="126" value="" style="rounded=0;whiteSpace=wrap;html=1;fillColor=#d5e8d4;strokeColor=#82b366;fillOpacity=50;" vertex="1" parent="10">
                    <mxGeometry x="380" y="390" width="10" height="10" as="geometry"/>
                </mxCell>
                <mxCell id="127" value="" style="rounded=0;whiteSpace=wrap;html=1;fillColor=#d5e8d4;strokeColor=#82b366;fillOpacity=50;" vertex="1" parent="10">
                    <mxGeometry x="390" y="390" width="10" height="10" as="geometry"/>
                </mxCell>
                <mxCell id="140" value="" style="rounded=0;whiteSpace=wrap;html=1;fillColor=#d5e8d4;strokeColor=#82b366;fillOpacity=50;" vertex="1" parent="10">
                    <mxGeometry x="320" y="400" width="10" height="10" as="geometry"/>
                </mxCell>
                <mxCell id="141" value="" style="rounded=0;whiteSpace=wrap;html=1;fillColor=#d5e8d4;strokeColor=#82b366;fillOpacity=50;" vertex="1" parent="10">
                    <mxGeometry x="330" y="400" width="10" height="10" as="geometry"/>
                </mxCell>
                <mxCell id="142" value="" style="rounded=0;whiteSpace=wrap;html=1;fillColor=#d5e8d4;strokeColor=#82b366;fillOpacity=50;" vertex="1" parent="10">
                    <mxGeometry x="320" y="410" width="10" height="10" as="geometry"/>
                </mxCell>
                <mxCell id="143" value="" style="rounded=0;whiteSpace=wrap;html=1;fillColor=#d5e8d4;strokeColor=#82b366;fillOpacity=50;" vertex="1" parent="10">
                    <mxGeometry x="330" y="410" width="10" height="10" as="geometry"/>
                </mxCell>
                <mxCell id="144" value="" style="rounded=0;whiteSpace=wrap;html=1;fillColor=#d5e8d4;strokeColor=#82b366;fillOpacity=50;" vertex="1" parent="10">
                    <mxGeometry x="340" y="400" width="10" height="10" as="geometry"/>
                </mxCell>
                <mxCell id="145" value="" style="rounded=0;whiteSpace=wrap;html=1;fillColor=#d5e8d4;strokeColor=#82b366;fillOpacity=50;" vertex="1" parent="10">
                    <mxGeometry x="350" y="400" width="10" height="10" as="geometry"/>
                </mxCell>
                <mxCell id="146" value="" style="rounded=0;whiteSpace=wrap;html=1;fillColor=#d5e8d4;strokeColor=#82b366;fillOpacity=50;" vertex="1" parent="10">
                    <mxGeometry x="340" y="410" width="10" height="10" as="geometry"/>
                </mxCell>
                <mxCell id="147" value="" style="rounded=0;whiteSpace=wrap;html=1;fillColor=#d5e8d4;strokeColor=#82b366;fillOpacity=50;" vertex="1" parent="10">
                    <mxGeometry x="350" y="410" width="10" height="10" as="geometry"/>
                </mxCell>
                <mxCell id="148" value="" style="rounded=0;whiteSpace=wrap;html=1;fillColor=#d5e8d4;strokeColor=#82b366;fillOpacity=50;" vertex="1" parent="10">
                    <mxGeometry x="320" y="420" width="10" height="10" as="geometry"/>
                </mxCell>
                <mxCell id="149" value="" style="rounded=0;whiteSpace=wrap;html=1;fillColor=#d5e8d4;strokeColor=#82b366;fillOpacity=50;" vertex="1" parent="10">
                    <mxGeometry x="330" y="420" width="10" height="10" as="geometry"/>
                </mxCell>
                <mxCell id="150" value="" style="rounded=0;whiteSpace=wrap;html=1;fillColor=#d5e8d4;strokeColor=#82b366;fillOpacity=50;" vertex="1" parent="10">
                    <mxGeometry x="320" y="430" width="10" height="10" as="geometry"/>
                </mxCell>
                <mxCell id="151" value="" style="rounded=0;whiteSpace=wrap;html=1;fillColor=#d5e8d4;strokeColor=#82b366;fillOpacity=50;" vertex="1" parent="10">
                    <mxGeometry x="330" y="430" width="10" height="10" as="geometry"/>
                </mxCell>
                <mxCell id="152" value="" style="rounded=0;whiteSpace=wrap;html=1;fillColor=#d5e8d4;strokeColor=#82b366;fillOpacity=50;" vertex="1" parent="10">
                    <mxGeometry x="340" y="420" width="10" height="10" as="geometry"/>
                </mxCell>
                <mxCell id="153" value="" style="rounded=0;whiteSpace=wrap;html=1;fillColor=#d5e8d4;strokeColor=#82b366;fillOpacity=50;" vertex="1" parent="10">
                    <mxGeometry x="350" y="420" width="10" height="10" as="geometry"/>
                </mxCell>
                <mxCell id="154" value="" style="rounded=0;whiteSpace=wrap;html=1;fillColor=#d5e8d4;strokeColor=#82b366;fillOpacity=50;" vertex="1" parent="10">
                    <mxGeometry x="340" y="430" width="10" height="10" as="geometry"/>
                </mxCell>
                <mxCell id="155" value="" style="rounded=0;whiteSpace=wrap;html=1;fillColor=#d5e8d4;strokeColor=#82b366;fillOpacity=50;" vertex="1" parent="10">
                    <mxGeometry x="350" y="430" width="10" height="10" as="geometry"/>
                </mxCell>
                <mxCell id="156" value="" style="rounded=0;whiteSpace=wrap;html=1;fillColor=#d5e8d4;strokeColor=#82b366;fillOpacity=50;" vertex="1" parent="10">
                    <mxGeometry x="360" y="400" width="10" height="10" as="geometry"/>
                </mxCell>
                <mxCell id="157" value="" style="rounded=0;whiteSpace=wrap;html=1;fillColor=#d5e8d4;strokeColor=#82b366;fillOpacity=50;" vertex="1" parent="10">
                    <mxGeometry x="370" y="400" width="10" height="10" as="geometry"/>
                </mxCell>
                <mxCell id="158" value="" style="rounded=0;whiteSpace=wrap;html=1;fillColor=#d5e8d4;strokeColor=#82b366;fillOpacity=50;" vertex="1" parent="10">
                    <mxGeometry x="360" y="410" width="10" height="10" as="geometry"/>
                </mxCell>
                <mxCell id="159" value="" style="rounded=0;whiteSpace=wrap;html=1;fillColor=#d5e8d4;strokeColor=#82b366;fillOpacity=50;" vertex="1" parent="10">
                    <mxGeometry x="370" y="410" width="10" height="10" as="geometry"/>
                </mxCell>
                <mxCell id="160" value="" style="rounded=0;whiteSpace=wrap;html=1;fillColor=#d5e8d4;strokeColor=#82b366;fillOpacity=50;" vertex="1" parent="10">
                    <mxGeometry x="360" y="420" width="10" height="10" as="geometry"/>
                </mxCell>
                <mxCell id="161" value="" style="rounded=0;whiteSpace=wrap;html=1;fillColor=#d5e8d4;strokeColor=#82b366;fillOpacity=50;" vertex="1" parent="10">
                    <mxGeometry x="370" y="420" width="10" height="10" as="geometry"/>
                </mxCell>
                <mxCell id="162" value="" style="rounded=0;whiteSpace=wrap;html=1;fillColor=#d5e8d4;strokeColor=#82b366;fillOpacity=50;" vertex="1" parent="10">
                    <mxGeometry x="360" y="430" width="10" height="10" as="geometry"/>
                </mxCell>
                <mxCell id="163" value="" style="rounded=0;whiteSpace=wrap;html=1;fillColor=#d5e8d4;strokeColor=#82b366;fillOpacity=50;" vertex="1" parent="10">
                    <mxGeometry x="370" y="430" width="10" height="10" as="geometry"/>
                </mxCell>
                <mxCell id="164" value="" style="rounded=0;whiteSpace=wrap;html=1;fillColor=#d5e8d4;strokeColor=#82b366;fillOpacity=50;" vertex="1" parent="10">
                    <mxGeometry x="380" y="400" width="10" height="10" as="geometry"/>
                </mxCell>
                <mxCell id="165" value="" style="rounded=0;whiteSpace=wrap;html=1;fillColor=#d5e8d4;strokeColor=#82b366;fillOpacity=50;" vertex="1" parent="10">
                    <mxGeometry x="390" y="400" width="10" height="10" as="geometry"/>
                </mxCell>
                <mxCell id="166" value="" style="rounded=0;whiteSpace=wrap;html=1;fillColor=#d5e8d4;strokeColor=#82b366;fillOpacity=50;" vertex="1" parent="10">
                    <mxGeometry x="380" y="410" width="10" height="10" as="geometry"/>
                </mxCell>
                <mxCell id="167" value="" style="rounded=0;whiteSpace=wrap;html=1;fillColor=#d5e8d4;strokeColor=#82b366;fillOpacity=50;" vertex="1" parent="10">
                    <mxGeometry x="390" y="410" width="10" height="10" as="geometry"/>
                </mxCell>
                <mxCell id="172" value="" style="rounded=0;whiteSpace=wrap;html=1;fillColor=#d5e8d4;strokeColor=#82b366;fillOpacity=50;" vertex="1" parent="10">
                    <mxGeometry x="380" y="420" width="10" height="10" as="geometry"/>
                </mxCell>
                <mxCell id="173" value="" style="rounded=0;whiteSpace=wrap;html=1;fillColor=#d5e8d4;strokeColor=#82b366;fillOpacity=50;" vertex="1" parent="10">
                    <mxGeometry x="390" y="420" width="10" height="10" as="geometry"/>
                </mxCell>
                <mxCell id="174" value="" style="rounded=0;whiteSpace=wrap;html=1;fillColor=#d5e8d4;strokeColor=#82b366;fillOpacity=50;" vertex="1" parent="10">
                    <mxGeometry x="380" y="430" width="10" height="10" as="geometry"/>
                </mxCell>
                <mxCell id="175" value="" style="rounded=0;whiteSpace=wrap;html=1;fillColor=#d5e8d4;strokeColor=#82b366;fillOpacity=50;" vertex="1" parent="10">
                    <mxGeometry x="390" y="430" width="10" height="10" as="geometry"/>
                </mxCell>
            </root>
        </mxGraphModel>
    </diagram>
</mxfile>